:SAMPLES-PER-SECOND 30
:FULLY-SPECIFIED
:DEGREES
139
root  -54.6314 39.3277 -7.02115 9.62192 55.3605 10.3624
RightUpLeg  10.8113 -28.2057 -27.2152
RightLeg  28.9775 -14.9387 -8.91382
RightFoot  1.44036 -1.93218 17.4583
RightToes  -1.33073e-015 0 -3.6325e-017
Spine  6.4956 2.49206 9.16482
Spine1  8.18601 5.95234 -12.3383
HEad  -6.69198 -1.52663 -9.87264
LeftShoulder1  -0.537468 4.85927 -33.5019
LeftArm  -7.31956 15.3401 -36.1445
LeftForeArm  32.7536 -8.51983 -6.70574
LeftHand  -0.0609032 8.17532 -0.635425
RightShoulder  -1.17269 -6.55301 31.9121
RightArm  5.75621 -16.7029 38.6286
RightForeArm  84.4575 79.9719 78.9852
RightHand  -1.60382 16.0165 -9.07037
LeftUpLeg  -16.6942 13.158 -10.2613
LeftLeg  16.9677 9.72565 1.30409
LeftFoot  -3.78241 -0.481523 7.62602
LeftToes  -1.63346e-009 7.54925e-011 9.86887e-012
140
root  -53.7878 39.2498 -6.96958 9.86502 57.7414 11.2917
RightUpLeg  6.33207 -17.9076 -24.6875
RightLeg  37.5033 -6.81018 -5.65407
RightFoot  4.8345 -1.67373 11.8432
RightToes  -1.33073e-015 0 -3.6325e-017
Spine  7.56611 2.75799 7.57404
Spine1  8.12849 5.97465 -12.0013
HEad  -6.65864 -4.13929 -7.98775
LeftShoulder1  -0.563213 4.93202 -33.2793
LeftArm  -8.68672 15.5005 -36.5821
LeftForeArm  31.8525 -6.72587 -6.02226
LeftHand  -0.0647285 8.82091 -0.525971
RightShoulder  -1.20898 -6.6188 32.2559
RightArm  4.85291 -17.0751 39.2556
RightForeArm  77.7346 79.6748 74.9744
RightHand  -2.02106 16.3106 -11.1685
LeftUpLeg  -15.2247 12.795 -10.8385
LeftLeg  18.1435 8.06443 0.833463
LeftFoot  -5.40989 -0.386961 8.06421
LeftToes  -1.63346e-009 7.54925e-011 9.86887e-012
141
root  -53.0164 39.1473 -6.84766 10.8346 60.158 12.5555
RightUpLeg  2.33581 -10.6103 -22.4765
RightLeg  44.8511 3.34507 3.19127
RightFoot  2.78409 -1.58199 12.8727
RightToes  -1.33073e-015 0 -3.6325e-017
Spine  7.66891 2.77439 4.93835
Spine1  8.92782 5.36226 -10.8925
HEad  -6.62937 -5.606 -6.65765
LeftShoulder1  -0.602422 5.02082 -33.5569
LeftArm  -8.33215 16.1625 -36.4464
LeftForeArm  31.3033 -7.05167 -6.1916
LeftHand  -0.0590208 8.84095 -0.350509
RightShoulder  -1.09312 -6.37783 31.4858
RightArm  3.88751 -16.9024 41.3229
RightForeArm  72.6659 79.3632 68.4131
RightHand  -1.56687 15.7195 -9.024
LeftUpLeg  -14.2161 10.5566 -11.1982
LeftLeg  19.4801 8.06818 0.692569
LeftFoot  -7.16809 -0.23542 7.63475
LeftToes  -1.63346e-009 7.54925e-011 9.86887e-012
142
root  -52.1871 39.1904 -6.70899 11.6455 63.2021 12.7472
RightUpLeg  -1.87955 -7.09451 -20.0043
RightLeg  51.1327 5.90414 7.32711
RightFoot  0.860866 -1.37215 12.8424
RightToes  -1.33073e-015 0 -3.6325e-017
Spine  6.94815 2.50147 3.07228
Spine1  9.2895 4.39086 -9.28586
HEad  -7.11189 -7.02245 -4.63668
LeftShoulder1  -0.581688 4.95192 -34.0036
LeftArm  -7.10077 16.4216 -36.1837
LeftForeArm  31.8722 -7.5197 -6.84784
LeftHand  -0.0519223 9.2745 -0.0231055
RightShoulder  -1.16303 -6.53133 31.8736
RightArm  3.7437 -16.6952 41.5239
RightForeArm  70.0375 79.1695 66.1757
RightHand  -1.66105 16.3249 -9.27741
LeftUpLeg  -13.1562 8.25555 -10.9624
LeftLeg  19.4041 7.42387 0.231953
LeftFoot  -8.50565 -0.119062 6.85765
LeftToes  -1.63346e-009 7.54925e-011 9.86887e-012
143
root  -51.2827 39.3311 -6.58351 12.068 65.7924 12.6645
RightUpLeg  -6.10074 -4.78724 -17.7657
RightLeg  54.6357 3.28561 4.56094
RightFoot  -0.353018 -1.11341 11.5087
RightToes  -1.33073e-015 0 -3.6325e-017
Spine  6.18653 2.16061 1.75445
Spine1  9.39272 3.61754 -8.09287
HEad  -7.13087 -8.85987 -2.55523
LeftShoulder1  -0.526845 4.83486 -33.4158
LeftArm  -6.28387 17.3013 -36.9968
LeftForeArm  31.8656 -8.98972 -7.0691
LeftHand  -0.0690836 9.07634 -0.616646
RightShoulder  -1.18316 -6.56369 32.1242
RightArm  4.02758 -16.8124 41.5285
RightForeArm  68.6856 79.0661 65.1589
RightHand  -1.58896 15.9011 -9.06781
LeftUpLeg  -11.0795 5.74143 -10.465
LeftLeg  17.7796 7.17298 -0.496376
LeftFoot  -9.58496 -0.0267583 5.49011
LeftToes  -1.63346e-009 7.54925e-011 9.86887e-012
144
root  -50.3943 39.5128 -6.44289 11.4463 67.9755 11.9674
RightUpLeg  -9.81018 -2.50685 -15.3574
RightLeg  55.4246 0.259729 0.0313912
RightFoot  -0.985747 -0.715788 7.78646
RightToes  -1.33073e-015 0 -3.6325e-017
Spine  6.1844 1.881 0.598761
Spine1  9.16622 2.96703 -6.77813
HEad  -7.51676 -10.6687 -0.52939
LeftShoulder1  -0.477694 4.73407 -32.6911
LeftArm  -5.36148 17.6372 -38.2697
LeftForeArm  31.5037 -10.4064 -7.04356
LeftHand  -0.0862479 8.08394 -1.68456
RightShoulder  -1.23262 -6.65582 32.5601
RightArm  4.59453 -16.7326 41.257
RightForeArm  67.4567 78.9782 64.4826
RightHand  -1.67483 16.9301 -9.09553
LeftUpLeg  -8.31871 4.37536 -9.6567
LeftLeg  15.6704 6.22342 -1.44938
LeftFoot  -10.316 0.027668 3.91966
LeftToes  -1.63346e-009 7.54925e-011 9.86887e-012
